<svg xmlns="http://www.w3.org/2000/svg" width="176" height="167" viewBox="0 0 176 167" fill="none"><rect x="33.5234" y="39.8572" width="103.714" height="85.9048" fill="#FFBC58"></rect><path d="M176 83.2459L156.48 61.1213L159.2 31.834L130.32 25.308L115.2 0L88 11.6194L60.8 0L45.68 25.308L16.8 31.7544L19.52 61.0417L0 83.2459L19.52 105.371L16.8 134.737L45.68 141.263L60.8 166.571L88 154.872L115.2 166.492L130.32 141.184L159.2 134.658L156.48 105.371L176 83.2459ZM72 123.038L40 91.2044L51.28 79.9829L72 100.516L124.72 48.0693L136 59.3704L72 123.038Z" fill="white"></path></svg>